<svg width="20" height="18" viewBox="0 0 20 18" fill="none" xmlns="http://www.w3.org/2000/svg">
<rect width="20" height="18" fill="#F2F2F2"/>
<g clip-path="url(#clip0_4_1224)">
<rect width="414" height="896" transform="translate(-353 -829)" fill="white"/>
<g clip-path="url(#clip1_4_1224)">
<g filter="url(#filter0_d_4_1224)">
<rect x="-353" y="-16" width="414" height="83" fill="white"/>
</g>
<path fill-rule="evenodd" clip-rule="evenodd" d="M0 2C0 0.89543 0.895431 0 2 0H18C19.1046 0 20 0.895431 20 2V16C20 17.1046 19.1046 18 18 18H2C0.895431 18 0 17.1046 0 16V2ZM2 1.5H18C18.2761 1.5 18.5 1.72386 18.5 2V2.93195L10.1387 8.50616C10.0547 8.56215 9.9453 8.56215 9.86133 8.50616L1.5 2.93195V2C1.5 1.72386 1.72386 1.5 2 1.5ZM1.5 4.73472V16C1.5 16.2761 1.72386 16.5 2 16.5H18C18.2761 16.5 18.5 16.2761 18.5 16V4.73472L10.9707 9.75424C10.3829 10.1461 9.6171 10.1461 9.02927 9.75424L1.5 4.73472Z" fill="#687684"/>
</g>
</g>
<defs>
<filter id="filter0_d_4_1224" x="-353" y="-16.33" width="414" height="83.33" filterUnits="userSpaceOnUse" color-interpolation-filters="sRGB">
<feFlood flood-opacity="0" result="BackgroundImageFix"/>
<feColorMatrix in="SourceAlpha" type="matrix" values="0 0 0 0 0 0 0 0 0 0 0 0 0 0 0 0 0 0 127 0" result="hardAlpha"/>
<feOffset dy="-0.33"/>
<feColorMatrix type="matrix" values="0 0 0 0 0.741176 0 0 0 0 0.772549 0 0 0 0 0.803922 0 0 0 1 0"/>
<feBlend mode="normal" in2="BackgroundImageFix" result="effect1_dropShadow_4_1224"/>
<feBlend mode="normal" in="SourceGraphic" in2="effect1_dropShadow_4_1224" result="shape"/>
</filter>
<clipPath id="clip0_4_1224">
<rect width="414" height="896" fill="white" transform="translate(-353 -829)"/>
</clipPath>
<clipPath id="clip1_4_1224">
<rect width="414" height="84" fill="white" transform="translate(-353 -17)"/>
</clipPath>
</defs>
</svg>
