<svg width="77" height="100" viewBox="0 0 77 100" fill="none" xmlns="http://www.w3.org/2000/svg">
<g filter="url(#filter0_d_4_3061)">
<circle cx="37.4241" cy="38" r="28" fill="#4C9EEB"/>
</g>
<path d="M30.9498 49.85C32.9163 36.4522 43.4604 28.7605 48.8745 28.6686C48.9298 28.6677 48.9721 28.7157 48.9718 28.771C48.9362 35.176 45.5774 35.4858 43.8107 35.6488C43.4024 35.6864 43.0792 35.7162 42.9016 35.8116C41.7051 36.0931 40.8781 36.9087 40.5262 37.3248C40.3676 37.5124 41.7391 37.733 44.1457 37.5223C44.2335 37.5146 44.287 37.6168 44.2307 37.6847C42.238 40.0897 40.0191 40.5749 38.6282 40.8791C38.1759 40.978 37.8111 41.0578 37.5702 41.1782C35.9172 42.7975 33.1237 46.5278 31.1335 49.917C31.078 50.0114 30.9339 49.9584 30.9498 49.85Z" fill="white"/>
<path d="M30 29.4241C30.4142 29.4241 30.75 29.7599 30.75 30.1741V33.6741H34.25C34.6642 33.6741 35 34.0099 35 34.4241C35 34.8383 34.6642 35.1741 34.25 35.1741H30.75V38.6741C30.75 39.0883 30.4142 39.4241 30 39.4241C29.5858 39.4241 29.25 39.0883 29.25 38.6741V35.1741H25.75C25.3358 35.1741 25 34.8383 25 34.4241C25 34.0099 25.3358 33.6741 25.75 33.6741H29.25V30.1741C29.25 29.7599 29.5858 29.4241 30 29.4241Z" fill="white"/>
<defs>
<filter id="filter0_d_4_3061" x="5.42407" y="7" width="64" height="64" filterUnits="userSpaceOnUse" color-interpolation-filters="sRGB">
<feFlood flood-opacity="0" result="BackgroundImageFix"/>
<feColorMatrix in="SourceAlpha" type="matrix" values="0 0 0 0 0 0 0 0 0 0 0 0 0 0 0 0 0 0 127 0" result="hardAlpha"/>
<feOffset dy="1"/>
<feGaussianBlur stdDeviation="2"/>
<feColorMatrix type="matrix" values="0 0 0 0 0 0 0 0 0 0 0 0 0 0 0 0 0 0 0.25 0"/>
<feBlend mode="normal" in2="BackgroundImageFix" result="effect1_dropShadow_4_3061"/>
<feBlend mode="normal" in="SourceGraphic" in2="effect1_dropShadow_4_3061" result="shape"/>
</filter>
</defs>
</svg>
